<svg width="549" height="461" viewBox="0 0 549 461" fill="none" xmlns="http://www.w3.org/2000/svg">
<g clip-path="url(#clip0_104_8)">
<path d="M497.822 354.312L516.649 437.941C517.69 443.356 511.775 447.409 507.1 444.484L435.134 395.749" fill="#FFB636"/>
<path d="M507.1 444.484L501.381 440.611C501.074 440.314 500.767 440.018 500.461 439.721C482.695 422.499 465.091 405.106 447.897 387.312L466.981 374.698C472.844 388.091 505.217 434.129 514.214 444.196C512.267 445.64 509.519 445.998 507.1 444.484V444.484Z" fill="#FFD469"/>
<path d="M459.525 364.79C476.586 353.207 493.471 348.316 497.239 353.866C501.007 359.416 490.231 373.305 473.17 384.888C456.109 396.47 439.224 401.361 435.456 395.811C431.688 390.261 442.464 376.372 459.525 364.79V364.79Z" fill="#A06C33"/>
<path d="M481.448 404.691C482.84 404.957 483.753 406.302 483.486 407.693C483.22 409.085 481.876 409.998 480.484 409.732C479.092 409.466 478.18 408.121 478.446 406.729C478.712 405.337 480.056 404.425 481.448 404.691Z" fill="#F7F9AA"/>
<path d="M470.296 319.423C472.294 319.805 473.604 321.734 473.221 323.732C472.839 325.729 470.91 327.039 468.913 326.657C466.915 326.275 465.605 324.346 465.987 322.348C466.369 320.35 468.298 319.041 470.296 319.423V319.423ZM513.842 352.789C513.46 354.787 514.769 356.716 516.767 357.098C518.765 357.48 520.694 356.171 521.076 354.173C521.458 352.175 520.148 350.246 518.151 349.864C516.153 349.482 514.224 350.792 513.842 352.789Z" fill="#FFB636"/>
<path d="M432.887 347.318C434.926 348.03 436.521 349.741 437.262 352.012C437.773 353.58 437.861 355.326 437.53 357.057C437.424 357.609 437.278 358.152 437.093 358.682C436.678 359.871 436.628 361.132 436.957 362.141C437.104 362.593 437.463 363.389 438.213 363.651C438.963 363.913 439.74 363.512 440.136 363.25C440.998 362.681 441.724 361.7 442.145 360.551C442.155 360.519 442.162 360.487 442.174 360.455C443.871 355.591 448.52 352.774 452.536 354.175C454.576 354.887 456.171 356.598 456.911 358.869C457.423 360.437 457.511 362.183 457.18 363.914C457.074 364.466 456.928 365.009 456.743 365.539C456.327 366.728 456.277 367.99 456.606 368.998C456.754 369.45 457.113 370.247 457.863 370.509C459.066 370.928 460.992 369.72 461.831 367.315C462.288 366.006 463.719 365.315 465.029 365.772C466.219 366.187 466.898 367.408 466.668 368.61C466.645 368.73 466.613 368.85 466.571 368.969C464.874 373.833 460.225 376.65 456.209 375.248C454.169 374.536 452.574 372.826 451.834 370.554C451.161 368.492 451.221 366.124 452.002 363.885C452.417 362.695 452.467 361.434 452.139 360.426C451.991 359.974 451.632 359.177 450.882 358.915C449.698 358.502 447.817 359.667 446.957 361.996C446.946 362.034 446.935 362.073 446.922 362.112C446.14 364.351 444.714 366.243 442.905 367.438C440.912 368.756 438.599 369.103 436.559 368.391C434.519 367.679 432.925 365.969 432.184 363.697C431.512 361.636 431.572 359.267 432.353 357.028C432.768 355.838 432.818 354.577 432.489 353.569C432.342 353.117 431.983 352.32 431.233 352.058C430.483 351.797 429.706 352.197 429.309 352.459C428.425 353.044 427.679 354.062 427.264 355.252C426.807 356.561 425.376 357.252 424.067 356.795C422.758 356.338 422.068 354.907 422.524 353.598C423.305 351.359 424.732 349.467 426.541 348.271C428.534 346.954 430.847 346.606 432.887 347.318V347.318Z" fill="#BEA4FF"/>
<path d="M439.305 414.361C441.569 414.794 443.053 416.98 442.62 419.244C442.187 421.507 440.001 422.992 437.737 422.559C435.474 422.126 433.99 419.939 434.422 417.676C434.855 415.412 437.041 413.928 439.305 414.361ZM448.583 340.185C448.083 342.801 449.797 345.326 452.413 345.826C455.028 346.327 457.553 344.612 458.054 341.997C458.554 339.381 456.839 336.856 454.224 336.356C451.609 335.855 449.083 337.57 448.583 340.185ZM499.922 393.841C499.422 396.457 501.137 398.982 503.752 399.482C506.367 399.982 508.893 398.268 509.393 395.653C509.893 393.037 508.179 390.512 505.563 390.011C502.948 389.511 500.423 391.226 499.922 393.841ZM490.254 326.877C489.004 325.895 487.195 326.113 486.214 327.363C485.823 327.861 485.318 328.449 484.733 329.129C479.598 335.105 468.913 347.541 479.047 366.527C479.795 367.929 481.538 368.459 482.94 367.711C484.342 366.963 484.872 365.22 484.123 363.818C475.844 348.306 484.141 338.648 489.098 332.879C489.7 332.177 490.27 331.515 490.739 330.917C490.973 330.62 491.145 330.28 491.247 329.916C491.349 329.552 491.378 329.171 491.333 328.796C491.288 328.421 491.17 328.059 490.984 327.729C490.799 327.4 490.551 327.11 490.254 326.877V326.877Z" fill="#FF6E83"/>
<path d="M432.503 328.312C433.895 328.578 434.807 329.922 434.541 331.314C434.275 332.706 432.931 333.619 431.539 333.352C430.146 333.086 429.234 331.742 429.5 330.35C429.766 328.958 431.111 328.045 432.503 328.312ZM403.517 416.014C403.251 417.406 404.163 418.75 405.555 419.016C406.947 419.283 408.291 418.37 408.558 416.978C408.824 415.586 407.911 414.242 406.519 413.975C405.127 413.709 403.783 414.622 403.517 416.014ZM443.967 382.785C443.463 382.393 442.893 381.92 442.291 381.419C439.232 378.877 435.043 375.396 429.617 374.197C423.1 372.757 416.497 375.032 409.992 380.959C408.863 381.988 408.782 383.737 409.811 384.865C410.84 385.994 412.589 386.076 413.717 385.047C418.888 380.336 423.698 378.553 428.424 379.597C432.539 380.507 435.986 383.371 438.756 385.673C439.394 386.203 439.997 386.704 440.572 387.151C441.778 388.089 443.515 387.871 444.453 386.665C444.721 386.321 444.904 385.918 444.986 385.49C445.082 384.989 445.038 384.471 444.858 383.994C444.678 383.517 444.37 383.098 443.967 382.785V382.785Z" fill="#59CAFC"/>
</g>
<path d="M95.2467 272.008C109.154 250.978 123.646 240.407 129.153 237.75C191.482 216.119 224.958 250.207 233.905 269.955L221.041 271.833L227.827 294.086L218.405 288.388C210.378 307.245 191.843 347.343 181.917 356.878C162.554 351.62 135.727 328.924 124.734 318.233L116.551 324.481L110.548 304.135L101.964 318.02C93.9302 311.445 81.3389 293.038 95.2467 272.008Z" fill="#54A3FF" fill-opacity="0.52"/>
<path d="M47.9615 55.4365C89.8982 39.6114 118.049 76.7524 126.883 97.301C111.734 116.872 77.3184 150.59 60.8457 128.897C40.2549 101.782 45.2663 69.8929 47.9615 55.4365Z" fill="#18347D"/>
<path d="M197.941 37.8472C231.645 67.3962 212.676 112.785 198.706 130.253C174.308 126.101 133.842 115.678 145.225 90.9326C159.455 60.001 183.918 42.2749 197.941 37.8472Z" fill="#18347D"/>
<path d="M50.7222 69.198L49.0166 55.8062C38.3781 89.4196 52.7227 120.523 62.2799 132.243L93.7872 106.557L87.4281 92.2452L83.659 98.2697L71.0767 74.6703L66.1261 79.3331L54.2386 61.1896L50.7222 69.198Z" fill="url(#paint0_linear_104_8)"/>
<path d="M203.046 46.2697L199.626 39.1447C232.249 69.7685 210.577 114.654 201.304 127.88L187.261 112.293L197.8 100.366L194.578 75.0703L204.429 80.8723L202.469 61.4644L208.17 62.7545L203.046 46.2697Z" fill="url(#paint1_linear_104_8)"/>
<path d="M21.2553 225.675C22.4888 222.695 48.6964 211.595 61.646 206.417C56.2345 199.546 55.7712 160.29 61.4143 133.361C67.0573 106.433 113.608 95.9675 138.165 94.8562C162.721 93.7448 205.044 105.492 201.331 135.703C197.618 165.914 188.033 177.72 189.297 187.64C201.064 191.383 213.242 217.352 217.861 229.869C215.621 226.794 208.685 220.352 198.858 219.184C205.814 223.137 209.898 237.268 211.071 243.839C206.598 240.376 196.039 233.455 189.589 233.47C194.805 236.435 197.295 249.122 197.888 255.095C183.855 247.809 154.301 233.428 148.349 234.186C140.909 235.133 98.6257 267.233 71.5169 264.133C44.408 261.033 19.7135 229.399 21.2553 225.675Z" fill="url(#paint2_linear_104_8)"/>
<path d="M46.7055 252.093C45.9121 252.331 45.4621 253.168 45.7005 253.961C45.9388 254.755 46.7752 255.205 47.5686 254.966L46.7055 252.093ZM122.33 236.17C122.976 235.651 123.079 234.707 122.561 234.061C122.042 233.415 121.098 233.312 120.452 233.83L122.33 236.17ZM47.5686 254.966C51.6676 253.735 55.9805 253.737 60.8732 254.045C65.7057 254.35 71.1458 254.96 77.1377 254.805C89.2779 254.489 103.787 251.05 122.33 236.17L120.452 233.83C102.411 248.307 88.5314 251.508 77.0598 251.806C71.2458 251.956 66.0742 251.367 61.062 251.051C56.1099 250.739 51.3449 250.699 46.7055 252.093L47.5686 254.966Z" fill="#54D6FF"/>
<path d="M118.733 150.529C102.446 154.754 105.199 182.83 104.96 194.286C127.424 204.448 147.927 191.295 153.783 181.867C148.633 161.429 139.04 145.261 118.733 150.529Z" fill="#141A4F"/>
<path d="M56.8478 165.355C55.2071 180.539 57.6972 193.755 60.8242 204.459C73.2618 206.276 76.0099 204.933 78.6409 195.432C75.4103 173.904 58.7257 147.975 56.8478 165.355Z" fill="#141A4F"/>
<circle cx="129.097" cy="174.097" r="13.5" transform="rotate(-7.25814 129.097 174.097)" fill="#54A3FF"/>
<path fill-rule="evenodd" clip-rule="evenodd" d="M70.2007 170.698C63.8681 172.479 59.6248 178.675 60.4809 185.396C61.4228 192.792 68.1822 198.024 75.5783 197.082C76.5439 196.959 77.4726 196.737 78.3556 196.428C78.4511 196.106 78.5461 195.774 78.6409 195.432C77.3584 186.886 73.9557 177.646 70.2007 170.698Z" fill="#54A3FF"/>
<path fill-rule="evenodd" clip-rule="evenodd" d="M70.8723 171.972C68.6636 173.24 67.3169 175.75 67.6587 178.434C68.1123 181.995 71.3668 184.514 74.9279 184.06C75.2359 184.021 75.5362 183.961 75.8274 183.881C74.4314 179.635 72.708 175.545 70.8723 171.972Z" fill="white"/>
<circle cx="136.269" cy="167.269" r="6.5" transform="rotate(-7.25814 136.269 167.269)" fill="white"/>
<path d="M465 198C455 195.2 447.833 215.5 445.5 226L459 275C463.333 270.833 479.5 257.9 509.5 239.5C547 216.5 542 201.5 526.5 187.5C514.1 176.3 485 202.5 472 217C473.833 211.833 475 200.8 465 198Z" fill="#EA914E"/>
<path d="M103.5 393C113.5 368.2 190.667 314.333 228.5 290C226.5 304 217.8 331.9 199 331.5C180.2 331.1 141.167 391.167 124 420C111.5 407 108.5 402 103.5 393Z" fill="#54A3FF"/>
<path d="M327 342.5C321 342.1 283.5 319 265.5 307.5L259.5 330C279.167 345 321.4 374.6 333 373C347.5 371 459 285 474 270.5C472.8 250.5 451.167 226.167 440.5 216.5C405.167 258.667 333 342.9 327 342.5Z" fill="#54A3FF"/>
<path d="M247.5 447C284.5 332.5 279.5 286.169 244.5 278.169C230 274.854 181 324.5 140.5 434.5C187.5 474.5 232 459 247.5 447Z" fill="#54D6FF"/>
<path d="M244.524 5.45027C188.276 14.723 246.575 102.402 226.552 165.813L271.451 152.402C281.225 100.327 289.523 -1.96791 244.524 5.45027Z" fill="#EA914E"/>
<path d="M350.929 8.3425C297.655 -1.38607 323.116 93.1565 285.767 141.876L330.13 144.424C354.821 102.307 393.549 16.1254 350.929 8.3425Z" fill="#EA914E"/>
<path d="M262.5 290C228 286 205.5 255 203.5 203C211 124 289.5 117.5 315.5 124C341.5 130.5 377.5 153.5 358 224C338.5 294.5 299 294.232 262.5 290Z" fill="#C17656"/>
<path d="M257 194.5C260.833 185.833 272.6 171.6 289 184" stroke="#8D2E2E" stroke-width="4" stroke-linecap="round" stroke-linejoin="round"/>
<path d="M316.5 189.5C323 184.167 337.2 177.4 342 193" stroke="#8D2E2E" stroke-width="4" stroke-linecap="round" stroke-linejoin="round"/>
<path d="M263 263.5L289.5 236C283.667 234.167 270.9 229.8 266.5 227C261 223.5 258.297 211 243 211C226.5 211 223 251 263 263.5Z" fill="white"/>
<path d="M292.5 236C286.667 235.167 273.2 231.9 266 225.5C257 217.5 253 206.5 239.5 211C226 215.5 231 238 237.5 247.5C244 257 255.5 266 266 262.5" stroke="#8F4D38" stroke-width="3"/>
<path d="M434.5 125L455.5 51.5" stroke="#D6FF80" stroke-width="4" stroke-linecap="round"/>
<path d="M463 122L499 72" stroke="#D6FF80" stroke-width="4" stroke-linecap="round"/>
<path d="M476 143L546.5 94.5" stroke="#D6FF80" stroke-width="4" stroke-linecap="round"/>
<path d="M33 243C54.5 234.5 48.1667 218.833 45 213.5C39 215.667 21 223.96 21 226C21 228 28 238 33 243Z" fill="black" fill-opacity="0.25"/>
<defs>
<linearGradient id="paint0_linear_104_8" x1="52.0956" y1="99.7694" x2="107.853" y2="74.5228" gradientUnits="userSpaceOnUse">
<stop stop-color="#54D6FF"/>
<stop offset="1" stop-color="#6FB1FF"/>
</linearGradient>
<linearGradient id="paint1_linear_104_8" x1="210.617" y1="92.0021" x2="187.222" y2="87.1508" gradientUnits="userSpaceOnUse">
<stop stop-color="#54D6FF"/>
<stop offset="1" stop-color="#6FB1FF"/>
</linearGradient>
<linearGradient id="paint2_linear_104_8" x1="126.5" y1="193" x2="212" y2="244.5" gradientUnits="userSpaceOnUse">
<stop stop-color="#19357D"/>
<stop offset="1" stop-color="#1E44CB"/>
</linearGradient>
<clipPath id="clip0_104_8">
<rect width="120.697" height="120.697" fill="white" transform="translate(398.712 426.213) rotate(-79.1727)"/>
</clipPath>
</defs>
</svg>
